<svg width="22" height="32" viewBox="0 0 22 32" fill="none" xmlns="http://www.w3.org/2000/svg">
<path d="M9.80555 19.9817V28.1025C9.80555 28.4138 9.68188 28.7124 9.46173 28.9324C9.2417 29.1526 8.94315 29.2762 8.6318 29.2762C8.32056 29.2762 8.02201 29.1526 7.80187 28.9324C7.58172 28.7124 7.45806 28.4138 7.45806 28.1025V19.993C7.78491 20.2317 8.17668 20.3649 8.58126 20.3749C9.02223 20.3874 9.45432 20.2487 9.80555 19.9817ZM19.802 17.6343C19.5042 17.6343 19.2184 17.7526 19.0078 17.9632C18.7972 18.1738 18.6788 18.4596 18.6788 18.7575V20.1727C18.6788 20.484 18.8025 20.7826 19.0226 21.0026C19.2427 21.2228 19.5412 21.3464 19.8526 21.3464C20.1639 21.3464 20.4625 21.2228 20.6825 21.0026C20.9027 20.7826 21.0263 20.484 21.0263 20.1727V18.8136C21.0351 18.6526 21.009 18.4915 20.9499 18.3414C20.8909 18.1914 20.8002 18.0557 20.684 17.9438C20.5678 17.8319 20.4289 17.7464 20.2768 17.6929C20.1246 17.6395 19.9627 17.6195 19.802 17.6343ZM4.90839 23.0593C4.50423 23.0472 4.11297 22.9142 3.78519 22.6774V30.8206C3.78519 31.1335 3.90944 31.4335 4.13062 31.6546C4.35179 31.8758 4.65176 32 4.96455 32C5.27734 32 5.57731 31.8758 5.79848 31.6546C6.01966 31.4335 6.14391 31.1335 6.14391 30.8206V22.7336C5.77713 22.9707 5.34437 23.0848 4.90839 23.0593ZM16.1404 15.1969C15.9882 15.1893 15.8361 15.2127 15.6933 15.2658C15.5505 15.3188 15.42 15.4003 15.3096 15.5053C15.1993 15.6105 15.1115 15.7368 15.0516 15.8769C14.9917 16.017 14.9608 16.1678 14.961 16.3201V22.5763C14.961 22.8892 15.0853 23.1892 15.3064 23.4103C15.5277 23.6315 15.8276 23.7557 16.1404 23.7557C16.4532 23.7557 16.7532 23.6315 16.9744 23.4103C17.1955 23.1892 17.3198 22.8892 17.3198 22.5763V16.3987C17.3287 16.2367 17.3025 16.0746 17.2427 15.9236C17.183 15.7727 17.0913 15.6364 16.9738 15.5243C16.8563 15.4122 16.716 15.3269 16.5625 15.2743C16.409 15.2216 16.2458 15.2029 16.0842 15.2194L16.1404 15.1969ZM12.4114 17.6006C11.9883 17.5976 11.5765 17.4643 11.232 17.2187V25.3843C11.232 25.6972 11.3562 25.9972 11.5774 26.2183C11.7987 26.4395 12.0986 26.5637 12.4114 26.5637C12.7242 26.5637 13.0241 26.4395 13.2453 26.2183C13.4665 25.9972 13.5907 25.6972 13.5907 25.3843V17.2299C13.2345 17.4953 12.7994 17.6337 12.3552 17.623L12.4114 17.6006ZM2.35872 23.8568V1.04458C2.35577 0.766506 2.24322 0.500847 2.04554 0.305264C1.84786 0.109681 1.581 -1.12311e-05 1.30291 8.625e-10H1.05581C0.777727 -1.12311e-05 0.510866 0.109681 0.313182 0.305264C0.115499 0.500847 0.00295402 0.766506 0 1.04458V23.8568C0 24.1368 0.111242 24.4054 0.30924 24.6034C0.507238 24.8014 0.775795 24.9126 1.05581 24.9126H1.30291C1.58294 24.9126 1.85148 24.8014 2.04948 24.6034C2.24749 24.4054 2.35872 24.1368 2.35872 23.8568ZM5.03194 22.1945H4.78484C4.50482 22.1945 4.23627 22.0833 4.03827 21.8852C3.84027 21.6872 3.72903 21.4187 3.72903 21.1386V3.76272C3.73199 3.48466 3.84453 3.21898 4.04221 3.02341C4.23989 2.82783 4.50675 2.71814 4.78484 2.71815H5.03194C5.31002 2.71814 5.57688 2.82783 5.77457 3.02341C5.97225 3.21898 6.0848 3.48466 6.08775 3.76272V21.1611C6.08775 21.4411 5.97651 21.7097 5.77851 21.9077C5.58051 22.1057 5.31195 22.2169 5.03194 22.2169V22.1945ZM8.74974 19.5212H8.4914C8.21442 19.5212 7.94867 19.4112 7.75278 19.2153C7.5569 19.0194 7.44682 18.7538 7.44682 18.4767V6.45841C7.44536 6.32029 7.47131 6.18325 7.52309 6.05521C7.57487 5.92718 7.65158 5.8107 7.74874 5.71251C7.8459 5.61432 7.96159 5.53637 8.08907 5.48318C8.21655 5.42998 8.35325 5.40259 8.4914 5.4026H8.74974C9.02784 5.40556 9.29348 5.5181 9.48903 5.71578C9.68469 5.91346 9.79431 6.18032 9.79431 6.45841V18.4767C9.79431 18.7538 9.68424 19.0194 9.48835 19.2153C9.29247 19.4112 9.02683 19.5212 8.74974 19.5212ZM12.4675 16.7694H12.2317C11.9536 16.7694 11.6867 16.6598 11.489 16.4641C11.2913 16.2686 11.1788 16.0029 11.1759 15.7248V9.25518C11.1666 9.11096 11.1871 8.9664 11.2361 8.83038C11.2849 8.69448 11.3613 8.56991 11.4602 8.46467C11.5592 8.35931 11.6787 8.27552 11.8115 8.21824C11.9441 8.16107 12.0871 8.13164 12.2317 8.13198H12.4788C12.7588 8.13198 13.0273 8.24317 13.2254 8.44119C13.4234 8.63921 13.5346 8.90777 13.5346 9.18779V15.7024C13.536 15.842 13.5099 15.9805 13.4574 16.1098C13.4051 16.2392 13.3276 16.357 13.2293 16.4562C13.1311 16.5554 13.0143 16.6342 12.8854 16.688C12.7565 16.7418 12.6184 16.7694 12.4788 16.7694H12.4675ZM16.1966 14.3545H15.9495C15.6694 14.3545 15.4009 14.2433 15.2029 14.0453C15.0048 13.8473 14.8936 13.5787 14.8936 13.2987V11.6251C14.8966 11.347 15.0091 11.0814 15.2068 10.8858C15.4045 10.6902 15.6714 10.5806 15.9495 10.5806H16.1966C16.4747 10.5806 16.7415 10.6902 16.9392 10.8858C17.1369 11.0814 17.2495 11.347 17.2524 11.6251V13.2987C17.2524 13.5768 17.1427 13.8437 16.9471 14.0414C16.7515 14.239 16.4859 14.3516 16.2078 14.3545H16.1966Z" fill="#475569"/>
</svg>
